<svg xmlns="http://www.w3.org/2000/svg"  viewBox="0 0 24 24" width="384px" height="384px"><linearGradient id="blMLBoBsn2rPVvtJZ7vQYa" x1="4.929" x2="19.071" y1="4.929" y2="19.071" gradientUnits="userSpaceOnUse"><stop offset="0" stop-color="#fff" stop-opacity=".6"/><stop offset="1" stop-color="#fff" stop-opacity=".3"/></linearGradient><circle cx="12" cy="12" r="10" fill="url(#blMLBoBsn2rPVvtJZ7vQYa)"/><linearGradient id="blMLBoBsn2rPVvtJZ7vQYb" x1="4.929" x2="19.071" y1="4.929" y2="19.071" gradientUnits="userSpaceOnUse"><stop offset="0" stop-color="#fff" stop-opacity=".6"/><stop offset=".493" stop-color="#fff" stop-opacity="0"/><stop offset=".997" stop-color="#fff" stop-opacity=".3"/></linearGradient><path fill="url(#blMLBoBsn2rPVvtJZ7vQYb)" d="M12,2.5c5.238,0,9.5,4.262,9.5,9.5 s-4.262,9.5-9.5,9.5S2.5,17.238,2.5,12S6.762,2.5,12,2.5 M12,2C6.477,2,2,6.477,2,12s4.477,10,10,10s10-4.477,10-10S17.523,2,12,2 L12,2z"/><linearGradient id="blMLBoBsn2rPVvtJZ7vQYc" x1="7.601" x2="16.399" y1="7.772" y2="16.57" gradientUnits="userSpaceOnUse"><stop offset="0" stop-color="#fff" stop-opacity=".7"/><stop offset=".519" stop-color="#fff" stop-opacity=".45"/><stop offset="1" stop-color="#fff" stop-opacity=".55"/></linearGradient><path fill="url(#blMLBoBsn2rPVvtJZ7vQYc)" d="M15.373,17.006 c-0.568,0-1.027-0.464-1.02-1.033l0.072-5.841h-0.057l-1.493,6.1c-0.111,0.454-0.518,0.773-0.985,0.773h0 c-0.47,0-0.879-0.323-0.987-0.78l-1.442-6.093H9.418l0.061,5.843c0.006,0.567-0.452,1.031-1.02,1.031h0 c-0.563,0-1.02-0.457-1.02-1.02V8.598c0-0.886,0.718-1.604,1.604-1.604h0c0.736,0,1.377,0.501,1.556,1.215l1.309,5.235h0.057 l1.271-5.225c0.175-0.719,0.819-1.225,1.558-1.225h0.163c0.886,0,1.604,0.718,1.604,1.604v7.389c0,0.563-0.457,1.02-1.02,1.02 H15.373z"/></svg>